<?xml version="1.0" standalone="no"?><!DOCTYPE svg PUBLIC "-//W3C//DTD SVG 1.1//EN" "http://www.w3.org/Graphics/SVG/1.1/DTD/svg11.dtd"><svg width="100%" height="100%" viewBox="0 0 55 56" version="1.1" xmlns="http://www.w3.org/2000/svg" xmlns:xlink="http://www.w3.org/1999/xlink" xml:space="preserve" style="fill-rule:evenodd;clip-rule:evenodd;stroke-linejoin:round;stroke-miterlimit:1.41421;"><path d="M50.652,31.548c0,-3.92 -3.177,-7.099 -7.096,-7.099c-2.053,0 -3.897,0.879 -5.191,2.267l-0.006,0c-1.731,1.994 -4.279,3.256 -7.127,3.256c-2.847,0 -5.395,-1.262 -7.125,-3.256l-0.031,0c-1.293,-1.388 -3.133,-2.267 -5.185,-2.267c-3.924,0 -7.102,3.179 -7.102,7.099c0,3.924 3.178,7.101 7.102,7.101c1.965,0 3.726,-0.813 5.006,-2.102l0.12,0c1.73,-2.052 4.32,-3.362 7.215,-3.362c2.896,0 5.485,1.31 7.216,3.362l0.097,0c1.28,1.289 3.044,2.102 5.011,2.102c3.919,0 7.096,-3.177 7.096,-7.101" style="fill:#1b6eb5;fill-rule:nonzero;"/><path d="M11.789,7.1c0,-3.922 3.183,-7.1 7.102,-7.1c2.049,0 3.892,0.877 5.185,2.267l0.008,0c1.735,1.991 4.281,3.256 7.126,3.256c2.849,0 5.394,-1.265 7.126,-3.256l0.029,0c1.299,-1.39 3.139,-2.267 5.186,-2.267c3.924,0 7.101,3.178 7.101,7.1c0,3.921 -3.177,7.099 -7.101,7.099c-1.962,0 -3.726,-0.81 -5.006,-2.102l-0.115,0c-1.735,-2.052 -4.324,-3.359 -7.22,-3.359c-2.897,0 -5.486,1.307 -7.217,3.359l-0.096,0c-1.28,1.292 -3.044,2.102 -5.006,2.102c-3.919,0 -7.102,-3.178 -7.102,-7.099" style="fill:#1b6eb5;fill-rule:nonzero;"/><path d="M0,19.495c0,3.921 3.182,7.102 7.097,7.102c2.053,0 3.892,-0.877 5.19,-2.268l0.007,0c1.735,-1.992 4.281,-3.258 7.127,-3.258c2.849,0 5.396,1.266 7.128,3.258l0.028,0c1.295,1.391 3.137,2.268 5.184,2.268c3.925,0 7.103,-3.181 7.103,-7.102c0,-3.922 -3.178,-7.102 -7.103,-7.102c-1.961,0 -3.72,0.813 -5.004,2.104l-0.118,0c-1.731,2.052 -4.323,3.36 -7.218,3.36c-2.897,0 -5.486,-1.308 -7.217,-3.36l-0.098,0c-1.28,-1.291 -3.04,-2.104 -5.009,-2.104c-3.915,0 -7.097,3.18 -7.097,7.102" style="fill:#0d0b0c;fill-rule:nonzero;"/><path d="M54.335,44.945l0,-1.667c0,-0.178 -0.161,-0.307 -0.34,-0.307l-8.026,0c-0.178,0 -0.323,0.129 -0.323,0.307l0,1.667c0,0.178 0.145,0.307 0.323,0.307l2.637,0l0,9.419c0,0.178 0.146,0.324 0.324,0.324l2.12,0c0.179,0 0.325,-0.146 0.325,-0.324l0,-9.419l2.62,0c0.179,0 0.34,-0.129 0.34,-0.307M44.334,54.59l0,-1.504c0,-0.179 -0.144,-0.324 -0.323,-0.324l-3.285,0c-0.762,0 -1.035,-0.259 -1.035,-1.1l0,-1.716l4.19,0c0.179,0 0.323,-0.146 0.323,-0.324l0,-1.538c0,-0.178 -0.144,-0.323 -0.323,-0.323l-4.19,0l0,-1.473c0,-0.842 0.273,-1.101 1.035,-1.101l3.285,0c0.179,0 0.323,-0.145 0.323,-0.323l0,-1.505c0,-0.211 -0.096,-0.291 -0.323,-0.324c-0.567,-0.081 -1.374,-0.211 -3.124,-0.211c-2.087,0 -3.949,0.518 -3.949,3.464l0,5.374c0,2.945 1.844,3.478 3.933,3.478c1.748,0 2.573,-0.129 3.14,-0.209c0.227,-0.033 0.323,-0.13 0.323,-0.341M34.72,54.671l0,-7.218c0,-3.754 -1.861,-4.629 -5,-4.629c-0.826,0 -2.67,0.147 -3.529,0.276c-0.631,0.097 -0.824,0.274 -0.824,1.003l0,10.568c0,0.178 0.129,0.324 0.307,0.324l2.152,0c0.178,0 0.309,-0.146 0.309,-0.324l0,-9.37c0.5,-0.065 1.229,-0.097 1.892,-0.097c1.328,0 1.926,0.437 1.926,2.249l0,7.218c0,0.178 0.113,0.324 0.291,0.324l2.169,0c0.178,0 0.307,-0.146 0.307,-0.324M23.684,50.723l0,-1.294c0,-0.18 -0.147,-0.309 -0.324,-0.309l-3.14,0c-0.178,0 -0.324,0.129 -0.324,0.309l0,1.294c0,0.177 0.146,0.291 0.324,0.291l3.14,0c0.177,0 0.324,-0.114 0.324,-0.291" style="fill:#0d0b0c;fill-rule:nonzero;"/><path d="M18.068,51.564l0,-0.291c0,-1.053 -0.55,-1.959 -1.44,-2.428c0.858,-0.485 1.44,-1.538 1.44,-2.476l0,-0.226c0,-2.429 -1.586,-3.319 -4.225,-3.319c-1.262,0 -2.459,0.243 -3.3,0.502c-0.162,0.049 -0.325,0.146 -0.325,0.308l0,1.295c0,0.178 0.13,0.29 0.293,0.29l0.032,0c1.23,-0.112 2.055,-0.193 3.188,-0.193c1.262,0 1.602,0.485 1.602,1.213l0,0.227c0,0.712 -0.324,1.408 -1.375,1.408l-2.784,0c-0.179,0 -0.308,0.129 -0.308,0.308l0,1.375c0,0.178 0.129,0.324 0.308,0.324l2.848,0c1.052,0 1.311,0.663 1.311,1.392l0,0.291c0,0.89 -0.453,1.375 -1.602,1.375c-0.874,0 -2.087,-0.048 -3.22,-0.145l-0.034,0c-0.162,0 -0.291,0.113 -0.291,0.291l0,1.295c0,0.161 0.147,0.259 0.309,0.308c0.84,0.259 2.086,0.452 3.348,0.452c2.51,0 4.225,-1.101 4.225,-3.576" style="fill:#1b6eb5;fill-rule:nonzero;"/><path d="M8.244,54.493l0,-1.57c0,-0.194 -0.097,-0.323 -0.307,-0.323l-0.048,0c-0.616,0.049 -1.506,0.129 -2.396,0.129c-1.116,0 -2.006,-0.582 -2.006,-2.734l0,-2.04c0,-2.152 0.89,-2.735 2.006,-2.735c0.89,0 1.78,0.08 2.396,0.129l0.048,0c0.21,0 0.307,-0.129 0.307,-0.323l0,-1.57c0,-0.227 -0.129,-0.291 -0.355,-0.356c-0.34,-0.114 -1.279,-0.275 -2.412,-0.275c-2.46,0 -4.79,1.278 -4.79,5.13l0,2.04c0,3.851 2.33,5.145 4.79,5.145c1.133,0 2.072,-0.162 2.412,-0.275c0.226,-0.064 0.355,-0.145 0.355,-0.372" style="fill:#0d0b0c;fill-rule:nonzero;"/></svg>