<?xml version="1.0" standalone="no"?><!DOCTYPE svg PUBLIC "-//W3C//DTD SVG 1.1//EN" "http://www.w3.org/Graphics/SVG/1.1/DTD/svg11.dtd"><svg width="100%" height="100%" viewBox="0 0 65 67" version="1.1" xmlns="http://www.w3.org/2000/svg" xmlns:xlink="http://www.w3.org/1999/xlink" xml:space="preserve" style="fill-rule:evenodd;clip-rule:evenodd;stroke-linejoin:round;stroke-miterlimit:1.41421;"><path d="M63.827,39.436c0,-4.901 -3.972,-8.875 -8.871,-8.875c-2.566,0 -4.871,1.099 -6.488,2.834l-0.008,0c-2.164,2.493 -5.349,4.07 -8.909,4.07c-3.559,0 -6.744,-1.577 -8.906,-4.07l-0.039,0c-1.616,-1.735 -3.916,-2.834 -6.481,-2.834c-4.905,0 -8.877,3.974 -8.877,8.875c0,4.904 3.972,8.876 8.877,8.876c2.456,0 4.657,-1.017 6.257,-2.628l0.15,0c2.163,-2.565 5.4,-4.202 9.019,-4.202c3.621,0 6.857,1.637 9.021,4.202l0.121,0c1.6,1.611 3.805,2.628 6.263,2.628c4.899,0 8.871,-3.972 8.871,-8.876" style="fill:#1b6eb5;fill-rule:nonzero;"/><path d="M15.248,8.875c0,-4.902 3.978,-8.875 8.877,-8.875c2.561,0 4.865,1.096 6.481,2.834l0.01,0c2.169,2.489 5.351,4.07 8.908,4.07c3.561,0 6.743,-1.581 8.907,-4.07l0.037,0c1.623,-1.738 3.923,-2.834 6.482,-2.834c4.905,0 8.877,3.973 8.877,8.875c0,4.902 -3.972,8.874 -8.877,8.874c-2.452,0 -4.657,-1.013 -6.257,-2.628l-0.144,0c-2.169,-2.565 -5.405,-4.198 -9.025,-4.198c-3.621,0 -6.858,1.633 -9.021,4.198l-0.121,0c-1.6,1.615 -3.804,2.628 -6.257,2.628c-4.899,0 -8.877,-3.972 -8.877,-8.874" style="fill:#1b6eb5;fill-rule:nonzero;"/><path d="M0.511,24.369c0,4.901 3.978,8.877 8.871,8.877c2.567,0 4.865,-1.096 6.488,-2.835l0.009,0c2.169,-2.489 5.351,-4.072 8.909,-4.072c3.561,0 6.745,1.583 8.909,4.072l0.035,0c1.619,1.739 3.922,2.835 6.481,2.835c4.906,0 8.878,-3.976 8.878,-8.877c0,-4.903 -3.972,-8.878 -8.878,-8.878c-2.452,0 -4.651,1.017 -6.256,2.631l-0.147,0c-2.164,2.565 -5.404,4.199 -9.022,4.199c-3.622,0 -6.858,-1.634 -9.022,-4.199l-0.122,0c-1.6,-1.614 -3.8,-2.631 -6.262,-2.631c-4.893,0 -8.871,3.975 -8.871,8.878" style="fill:#0d0b0c;fill-rule:nonzero;"/><path d="M64.846,54.104l0,-2.014c0,-0.216 -0.195,-0.372 -0.411,-0.372l-9.702,0c-0.214,0 -0.39,0.156 -0.39,0.372l0,2.014c0,0.216 0.176,0.372 0.39,0.372l3.188,0l0,11.385c0,0.215 0.177,0.391 0.392,0.391l2.562,0c0.216,0 0.393,-0.176 0.393,-0.391l0,-11.385l3.167,0c0.216,0 0.411,-0.156 0.411,-0.372M52.757,65.763l0,-1.818c0,-0.217 -0.174,-0.392 -0.39,-0.392l-3.971,0c-0.921,0 -1.251,-0.313 -1.251,-1.33l0,-2.074l5.065,0c0.216,0 0.39,-0.176 0.39,-0.391l0,-1.859c0,-0.215 -0.174,-0.391 -0.39,-0.391l-5.065,0l0,-1.78c0,-1.018 0.33,-1.331 1.251,-1.331l3.971,0c0.216,0 0.39,-0.175 0.39,-0.391l0,-1.818c0,-0.255 -0.116,-0.352 -0.39,-0.392c-0.686,-0.098 -1.661,-0.255 -3.776,-0.255c-2.523,0 -4.774,0.626 -4.774,4.187l0,6.495c0,3.56 2.23,4.205 4.755,4.205c2.112,0 3.109,-0.157 3.795,-0.253c0.274,-0.04 0.39,-0.157 0.39,-0.412M41.137,65.861l0,-8.725c0,-4.538 -2.25,-5.595 -6.044,-5.595c-0.998,0 -3.227,0.177 -4.265,0.333c-0.763,0.118 -0.997,0.332 -0.997,1.213l0,12.774c0,0.215 0.156,0.391 0.371,0.391l2.602,0c0.215,0 0.373,-0.176 0.373,-0.391l0,-11.326c0.605,-0.079 1.486,-0.117 2.287,-0.117c1.605,0 2.328,0.528 2.328,2.718l0,8.725c0,0.215 0.137,0.391 0.352,0.391l2.621,0c0.216,0 0.372,-0.176 0.372,-0.391M27.797,61.088l0,-1.564c0,-0.217 -0.177,-0.373 -0.392,-0.373l-3.795,0c-0.215,0 -0.391,0.156 -0.391,0.373l0,1.564c0,0.215 0.176,0.352 0.391,0.352l3.795,0c0.215,0 0.392,-0.137 0.392,-0.352" style="fill:#0d0b0c;fill-rule:nonzero;"/><path d="M21.009,62.105l0,-0.352c0,-1.272 -0.665,-2.368 -1.741,-2.934c1.037,-0.587 1.741,-1.859 1.741,-2.993l0,-0.274c0,-2.935 -1.917,-4.011 -5.107,-4.011c-1.525,0 -2.972,0.294 -3.989,0.607c-0.195,0.059 -0.392,0.176 -0.392,0.372l0,1.565c0,0.215 0.157,0.351 0.354,0.351l0.038,0c1.487,-0.136 2.484,-0.234 3.854,-0.234c1.525,0 1.936,0.587 1.936,1.467l0,0.274c0,0.861 -0.391,1.702 -1.662,1.702l-3.365,0c-0.216,0 -0.372,0.156 -0.372,0.372l0,1.662c0,0.215 0.156,0.392 0.372,0.392l3.442,0c1.272,0 1.585,0.801 1.585,1.682l0,0.352c0,1.076 -0.547,1.662 -1.936,1.662c-1.057,0 -2.523,-0.058 -3.892,-0.175l-0.041,0c-0.196,0 -0.352,0.136 -0.352,0.352l0,1.565c0,0.195 0.177,0.313 0.373,0.372c1.016,0.313 2.522,0.547 4.047,0.547c3.034,0 5.107,-1.331 5.107,-4.323" style="fill:#1b6eb5;fill-rule:nonzero;"/><path d="M9.135,65.646l0,-1.898c0,-0.235 -0.118,-0.391 -0.372,-0.391l-0.058,0c-0.744,0.059 -1.82,0.156 -2.896,0.156c-1.349,0 -2.425,-0.703 -2.425,-3.305l0,-2.465c0,-2.602 1.076,-3.306 2.425,-3.306c1.076,0 2.152,0.097 2.896,0.156l0.058,0c0.254,0 0.372,-0.156 0.372,-0.391l0,-1.897c0,-0.275 -0.156,-0.352 -0.43,-0.43c-0.411,-0.138 -1.546,-0.333 -2.915,-0.333c-2.974,0 -5.79,1.545 -5.79,6.201l0,2.465c0,4.655 2.816,6.22 5.79,6.22c1.369,0 2.504,-0.196 2.915,-0.333c0.274,-0.077 0.43,-0.175 0.43,-0.449" style="fill:#0d0b0c;fill-rule:nonzero;"/></svg>